<svg width="24" height="24" viewBox="0 0 24 24" fill="none" xmlns="http://www.w3.org/2000/svg">
<path d="M12.0001 3.72997C10.8801 3.79997 10.0001 4.72997 10.0001 5.86997V7.98997H9.98005C7.57889 8.48954 5.44864 9.8626 4.00204 11.8431C2.55544 13.8237 1.89549 16.2706 2.15005 18.71C2.16762 18.8897 2.23886 19.06 2.35452 19.1987C2.47017 19.3375 2.62488 19.4382 2.79853 19.4878C2.97219 19.5374 3.15675 19.5336 3.32823 19.4769C3.49971 19.4203 3.65017 19.3133 3.76005 19.17L3.95005 18.93C5.41101 17.1398 7.4995 15.974 9.79005 15.67L9.99005 15.64L10.0001 18.14C9.99991 18.5436 10.1134 18.9391 10.3275 19.2813C10.5416 19.6234 10.8478 19.8984 11.2108 20.0747C11.5739 20.251 11.9793 20.3216 12.3806 20.2783C12.7819 20.235 13.1629 20.0797 13.4801 19.83L21.3001 13.69C21.5559 13.4888 21.7627 13.2321 21.9049 12.9394C22.0471 12.6466 22.121 12.3254 22.121 12C22.121 11.6745 22.0471 11.3533 21.9049 11.0605C21.7627 10.7678 21.5559 10.5112 21.3001 10.31L13.4801 4.17997C13.1001 3.87997 12.6301 3.71997 12.1501 3.71997L12.0001 3.72997ZM12.1501 5.51997C12.2301 5.51997 12.3001 5.54997 12.3701 5.58997L20.1901 11.73C20.2317 11.7627 20.2653 11.8045 20.2884 11.8521C20.3115 11.8998 20.3235 11.952 20.3235 12.005C20.3235 12.0579 20.3115 12.1102 20.2884 12.1578C20.2653 12.2054 20.2317 12.2472 20.1901 12.28L12.3701 18.41C12.3181 18.4519 12.2553 18.4782 12.189 18.4856C12.1226 18.4931 12.0556 18.4814 11.9956 18.452C11.9357 18.4225 11.8855 18.3766 11.8508 18.3195C11.8162 18.2625 11.7986 18.1967 11.8001 18.13V14.7C11.8001 14.5801 11.7762 14.4614 11.7297 14.3509C11.6832 14.2404 11.6151 14.1402 11.5294 14.0564C11.4437 13.9726 11.3421 13.9067 11.2306 13.8627C11.1191 13.8186 10.9999 13.7973 10.8801 13.8H10.6501L10.3101 13.82C8.03005 13.96 5.91005 14.8 4.19005 16.18L4.02005 16.33L4.04005 16.19C4.35997 14.5034 5.20745 12.962 6.46021 11.7884C7.71296 10.6147 9.30621 9.86938 11.0101 9.65997C11.2292 9.63299 11.4308 9.52638 11.5765 9.36043C11.7221 9.19448 11.8017 8.98078 11.8001 8.75997V5.86997C11.8001 5.66997 11.9601 5.51997 12.1501 5.51997Z" fill="black"/>
</svg>
