<svg width="14" height="10" viewBox="0 0 14 10" fill="none" xmlns="http://www.w3.org/2000/svg">
<path fill-rule="evenodd" clip-rule="evenodd" d="M13.5625 5C13.5625 4.125 10.9375 0.625 7 0.625C3.0625 0.625 0.4375 4.125 0.4375 5C0.4375 5.875 3.0625 9.375 7 9.375C10.9375 9.375 13.5625 5.875 13.5625 5ZM10.0625 5C10.0625 5.81223 9.73984 6.59118 9.16551 7.16551C8.59118 7.73984 7.81223 8.0625 7 8.0625C6.18777 8.0625 5.40882 7.73984 4.83449 7.16551C4.26016 6.59118 3.9375 5.81223 3.9375 5C3.9375 4.18777 4.26016 3.40882 4.83449 2.83449C5.40882 2.26016 6.18777 1.9375 7 1.9375C7.81223 1.9375 8.59118 2.26016 9.16551 2.83449C9.73984 3.40882 10.0625 4.18777 10.0625 5Z" fill="black"/>
</svg>
