<svg width="20" height="20" viewBox="0 0 20 20" fill="none" xmlns="http://www.w3.org/2000/svg">
<path fill-rule="evenodd" clip-rule="evenodd" d="M9.5 4.50001C8.17392 4.50001 6.90215 5.0268 5.96447 5.96448C5.02679 6.90216 4.5 8.17393 4.5 9.50001C4.5 10.8261 5.02679 12.0979 5.96447 13.0355C6.90215 13.9732 8.17392 14.5 9.5 14.5C10.8261 14.5 12.0979 13.9732 13.0355 13.0355C13.9732 12.0979 14.5 10.8261 14.5 9.50001C14.5 8.17393 13.9732 6.90216 13.0355 5.96448C12.0979 5.0268 10.8261 4.50001 9.5 4.50001ZM3 9.50001C3.00162 8.46358 3.25105 7.44255 3.7275 6.52212C4.20394 5.60168 4.89358 4.80852 5.73889 4.20881C6.58419 3.60909 7.56065 3.22021 8.58681 3.0746C9.61297 2.92899 10.6591 3.03088 11.6378 3.37176C12.6166 3.71264 13.4997 4.28264 14.2134 5.0342C14.9271 5.78576 15.4507 6.69708 15.7406 7.69216C16.0305 8.68723 16.0782 9.7372 15.8798 10.7545C15.6814 11.7717 15.2426 12.7268 14.6 13.54L17.78 16.72C17.8537 16.7887 17.9128 16.8715 17.9538 16.9635C17.9948 17.0555 18.0168 17.1548 18.0186 17.2555C18.0204 17.3562 18.0018 17.4562 17.9641 17.5496C17.9264 17.643 17.8703 17.7278 17.799 17.799C17.7278 17.8703 17.643 17.9264 17.5496 17.9641C17.4562 18.0019 17.3562 18.0204 17.2555 18.0186C17.1548 18.0168 17.0555 17.9948 16.9635 17.9538C16.8715 17.9128 16.7887 17.8537 16.72 17.78L13.54 14.6C12.5821 15.3601 11.4291 15.8345 10.2137 15.9687C8.99826 16.103 7.7696 15.8917 6.66885 15.3591C5.56811 14.8264 4.63993 13.9941 3.99095 12.9577C3.34196 11.9213 2.9985 10.7228 3 9.50001Z" fill="black"/>
</svg>
