<svg width="24" height="25" viewBox="0 0 24 25" fill="none" xmlns="http://www.w3.org/2000/svg">
<path d="M13.8802 10.319L12.3222 5.9326C12.2567 5.74822 12.1116 5.60316 11.9273 5.53767C11.589 5.41751 11.2173 5.59432 11.0972 5.9326L9.53915 10.319H5.65004C5.44613 10.319 5.25404 10.4146 5.1312 10.5774C4.91496 10.8639 4.97194 11.2716 5.25849 11.4878L8.46581 13.9083L7.26468 18.3607C7.21207 18.5557 7.25311 18.7641 7.37573 18.9246C7.59366 19.2099 8.00158 19.2645 8.28685 19.0465L11.7097 16.4316L15.1332 19.0466C15.2938 19.1692 15.5022 19.2102 15.6972 19.1576C16.0438 19.064 16.2489 18.7072 16.1553 18.3606L14.9536 13.9083L18.1609 11.4878C18.3237 11.365 18.4194 11.1729 18.4194 10.969C18.4194 10.61 18.1283 10.319 17.7694 10.319H13.8802Z" fill="#2A5885"/>
</svg>
