<svg width="24" height="25" viewBox="0 0 24 25" fill="none" xmlns="http://www.w3.org/2000/svg">
<path fill-rule="evenodd" clip-rule="evenodd" d="M10.197 9.79393C10.274 10.0988 10.71 10.0948 10.781 9.78794L11.761 5.5395C11.8352 5.21056 12.0313 4.92197 12.31 4.73189C12.5886 4.54182 12.9289 4.4644 13.2624 4.51524C13.5958 4.56608 13.8976 4.74141 14.1069 5.00587C14.3161 5.27033 14.4173 5.60427 14.39 5.94035L14 11.0035H14.129C14.5881 11.0032 15.0424 11.0965 15.464 11.278C15.8857 11.4594 16.2659 11.7249 16.5812 12.0584C16.8966 12.3919 17.1405 12.7863 17.2979 13.2173C17.4554 13.6484 17.5231 14.107 17.497 14.5652L16.254 13.8424C14.58 12.8698 12.5 14.0864 12.5 16.0056V19.4964C12.5 19.8063 12.554 20.0981 12.653 20.366C12.2312 20.4555 11.8012 20.5004 11.37 20.5H10.5C6.795 20.5 5 17.5011 5 15.5018V15.3139C5 14.5021 5.3226 13.7236 5.89684 13.1495C6.47108 12.5755 7.24991 12.253 8.062 12.253H8.486C8.73236 12.2529 8.97073 12.3404 9.15842 12.4999C9.34611 12.6594 9.47086 12.8805 9.51033 13.1236C9.54979 13.3667 9.5014 13.6159 9.37381 13.8265C9.24622 14.0372 9.04777 14.1956 8.814 14.2733L8.763 14.2903C8.66836 14.3204 8.58064 14.369 8.50495 14.4333C8.42925 14.4976 8.36709 14.5763 8.32206 14.6648C8.27703 14.7533 8.25004 14.8499 8.24265 14.9489C8.23526 15.0479 8.24762 15.1474 8.27901 15.2416C8.3104 15.3358 8.3602 15.4228 8.42551 15.4976C8.49082 15.5724 8.57035 15.6335 8.65947 15.6774C8.7486 15.7212 8.84554 15.7469 8.94468 15.753C9.04383 15.7591 9.14319 15.7454 9.237 15.7128L9.288 15.6958C9.85962 15.5054 10.3448 15.118 10.6568 14.6027C10.9687 14.0875 11.087 13.4781 10.9906 12.8836C10.8941 12.2891 10.5891 11.7483 10.1302 11.358C9.67134 10.9678 9.08849 10.7535 8.486 10.7536H8.062C7.68 10.7536 7.308 10.8006 6.952 10.8895L6.612 6.45116C6.5893 6.11716 6.69216 5.78671 6.90043 5.52455C7.10871 5.26239 7.4074 5.08741 7.73798 5.03387C8.06857 4.98034 8.40725 5.05211 8.68767 5.23513C8.96809 5.41815 9.17005 5.69923 9.254 6.02332L10.197 9.79393ZM17.239 16.1496C16.9942 16.9541 16.5869 17.6997 16.0421 18.3404C15.4973 18.9811 14.8268 19.5031 14.072 19.8742C14.0239 19.7541 13.9995 19.6258 14 19.4964V16.0056C13.9995 15.83 14.0454 15.6573 14.133 15.505C14.2207 15.3527 14.3469 15.2263 14.4991 15.1383C14.6512 15.0504 14.8239 15.0042 14.9996 15.0043C15.1754 15.0044 15.348 15.0509 15.5 15.139L17.239 16.1496Z" fill="#2A5885"/>
<path d="M18.502 16.8843C18.6535 16.9727 18.7791 17.0993 18.8664 17.2513C18.9538 17.4034 18.9997 17.5757 18.9997 17.751C18.9997 17.9263 18.9538 18.0986 18.8664 18.2507C18.7791 18.4027 18.6535 18.5293 18.502 18.6177L15.5 20.363C15.348 20.4511 15.1754 20.4976 14.9996 20.4977C14.8239 20.4978 14.6512 20.4516 14.4991 20.3637C14.3469 20.2758 14.2207 20.1493 14.133 19.997C14.0454 19.8447 13.9995 19.672 14 19.4964V16.0056C13.9995 15.83 14.0454 15.6573 14.133 15.505C14.2207 15.3527 14.3469 15.2263 14.4991 15.1383C14.6512 15.0504 14.8239 15.0042 14.9996 15.0043C15.1754 15.0044 15.348 15.0509 15.5 15.139L18.502 16.8843Z" fill="#2A5885"/>
</svg>
