<svg width="24" height="25" viewBox="0 0 24 25" fill="none" xmlns="http://www.w3.org/2000/svg">
<path d="M13 5.5V10.0023C13 10.2772 13.2148 10.5 13.4977 10.5H18L13 5.5Z" fill="#2A5885"/>
<path d="M12 5.5H7.28194C6.83618 5.5 6.67454 5.54642 6.51158 5.63358C6.34861 5.72073 6.22072 5.8486 6.13357 6.01157C6.04641 6.17453 6 6.33619 6 6.78195V18.218C6 18.6638 6.04641 18.8255 6.13357 18.9884C6.22072 19.1514 6.34861 19.2793 6.51158 19.3664C6.67454 19.4536 6.83618 19.5 7.28194 19.5H16.7181C17.1638 19.5 17.3255 19.4536 17.4884 19.3664C17.6514 19.2793 17.7793 19.1514 17.8664 18.9884C17.9536 18.8255 18 18.6638 18 18.218V11.5H13.2819C12.8362 11.5 12.6745 11.4536 12.5116 11.3664C12.3486 11.2793 12.2207 11.1514 12.1336 10.9884C12.0464 10.8255 12 10.6638 12 10.218V5.5Z" fill="#2A5885"/>
</svg>
