<svg width="24" height="25" viewBox="0 0 24 25" fill="none" xmlns="http://www.w3.org/2000/svg">
<path fill-rule="evenodd" clip-rule="evenodd" d="M19.7701 12.7545C19.8697 13.158 20.7657 17.294 18.177 17.4957C17.3188 17.5748 16.3995 16.5389 15.6106 15.65C15.3928 15.4045 15.1849 15.1702 14.9909 14.9738C14.1944 13.965 13.2983 13.4606 11.9044 13.4606C10.5105 13.4606 9.71398 13.965 8.8179 14.9738C8.61388 15.1805 8.39438 15.429 8.16528 15.6884C7.38809 16.5685 6.50034 17.5737 5.73137 17.4957C3.24223 17.3949 4.13832 13.158 4.23789 12.7545C4.63615 10.5351 6.03007 6.5 8.8179 6.5C8.8179 6.5 9.71398 6.60088 10.4109 7.00439C11.6057 7.50879 12.2031 7.50879 13.4975 7.00439C14.294 6.60088 15.0905 6.5 15.0905 6.5C17.9779 6.5 19.2723 10.4343 19.7701 12.7545ZM9 10V10.5H9.5C9.77614 10.5 10 10.7239 10 11C10 11.2761 9.77614 11.5 9.5 11.5H9V12C9 12.2761 8.77614 12.5 8.5 12.5C8.22386 12.5 8 12.2761 8 12V11.5H7.5C7.22386 11.5 7 11.2761 7 11C7 10.7239 7.22386 10.5 7.5 10.5H8V10C8 9.72386 8.22386 9.5 8.5 9.5C8.77614 9.5 9 9.72386 9 10ZM16 11C16 11.2681 16.2239 11.5 16.5 11.5C16.7681 11.5 17 11.2761 17 11C17 10.7319 16.7761 10.5 16.5 10.5C16.2319 10.5 16 10.7239 16 11ZM14.5 11.5C14.2239 11.5 14 11.2681 14 11C14 10.7239 14.2319 10.5 14.5 10.5C14.7761 10.5 15 10.7319 15 11C15 11.2761 14.7681 11.5 14.5 11.5Z" fill="#2A5885"/>
</svg>
