<svg width="24" height="25" viewBox="0 0 24 25" fill="none" xmlns="http://www.w3.org/2000/svg">
<path d="M17.83 9.14C17.72 8.94 17.56 8.78 17.36 8.67C17.16 8.56 16.95 8.5 16.4 8.5H16C16 6.29 14.21 4.5 12 4.5C9.79 4.5 8 6.29 8 8.5H7.6C7.05 8.5 6.84 8.56 6.64 8.67C6.44 8.78 6.28 8.94 6.17 9.14C6.06 9.34 6 9.55 6 10.1V17.88C6 18.77 6.73 19.5 7.62 19.5H16.38C17.28 19.5 18 18.77 18 17.88V10.1C18 9.55 17.94 9.34 17.83 9.14ZM12 6C13.38 6 14.5 7.12 14.5 8.5H9.5C9.5 7.12 10.62 6 12 6Z" fill="#2A5885"/>
</svg>
