<svg width="24" height="25" viewBox="0 0 24 25" fill="none" xmlns="http://www.w3.org/2000/svg">
<path fill-rule="evenodd" clip-rule="evenodd" d="M12 20.5C7.58172 20.5 4 16.9183 4 12.5C4 8.08172 7.58172 4.5 12 4.5C16.4183 4.5 20 8.08172 20 12.5C20 16.9183 16.4183 20.5 12 20.5ZM13 15C13 15.2761 12.7761 15.5 12.5 15.5H11V15.9874C11 16.2646 10.7771 16.4903 10.5 16.4938C10.2273 16.4972 10.0034 16.2788 10 16.0061L10 16V15.5125L9.49996 15.5062C9.22284 15.5028 9 15.2772 9 15C9 14.7273 9.22108 14.5062 9.49379 14.5062H9.49996L10 14.5125V13.5L9.49996 13.4938C9.22284 13.4903 9 13.2647 9 12.9875C9 12.7148 9.22108 12.4937 9.49379 12.4937L9.49996 12.4938L10 12.5V9.01245C10 8.73631 10.2239 8.51245 10.5 8.51245H12.5C14.2312 8.51245 15.5 9.5 15.5 11C15.5 12.5 14.25 13.5 12.5 13.5H11V14.5H12.5C12.7761 14.5 13 14.7239 13 15ZM11 9.5H12.5C14 9.5 14.5 10.25 14.5 10.9988C14.5 11.7476 14 12.4976 12.5 12.4976H11V9.5Z" fill="#2A5885"/>
</svg>
