<svg width="24" height="25" viewBox="0 0 24 25" fill="none" xmlns="http://www.w3.org/2000/svg">
<path fill-rule="evenodd" clip-rule="evenodd" d="M12 6.5C11.144 6.503 10.655 6.525 10.246 6.658C9.75811 6.81648 9.31466 7.08819 8.95193 7.45093C8.58919 7.81366 8.31748 8.25711 8.159 8.745C8.025 9.156 8.004 9.649 8.001 10.515C7.293 10.543 6.822 10.621 6.432 10.835C5.96941 11.0872 5.589 11.4669 5.336 11.929C5 12.546 5 13.363 5 14.998C5 16.633 5 17.45 5.336 18.066C5.58869 18.5289 5.96914 18.9093 6.432 19.162C7.048 19.498 7.865 19.498 9.5 19.498H14.5C16.135 19.498 16.952 19.498 17.568 19.162C18.0309 18.9093 18.4113 18.5289 18.664 18.066C19 17.45 19 16.633 19 14.998C19 13.363 19 12.546 18.664 11.93C18.4113 11.4671 18.0309 11.0867 17.568 10.834C17.178 10.621 16.708 10.544 15.999 10.514C15.996 9.649 15.975 9.156 15.841 8.744C15.6824 8.25629 15.4106 7.81305 15.0479 7.4505C14.6852 7.08794 14.2418 6.81638 13.754 6.658C13.345 6.525 12.856 6.503 12 6.5ZM14.298 10.498C14.293 9.626 14.271 9.413 14.224 9.27C14.1484 9.03741 14.0188 8.82601 13.8459 8.65308C13.673 8.48015 13.4616 8.35059 13.229 8.275C13.086 8.228 12.873 8.206 12 8.2C11.127 8.206 10.914 8.228 10.771 8.275C10.5384 8.35059 10.327 8.48015 10.1541 8.65308C9.98115 8.82601 9.85159 9.03741 9.776 9.27C9.729 9.413 9.707 9.626 9.702 10.498H14.298Z" fill="#2A5885"/>
</svg>
